<svg width="111" height="111" viewBox="0 0 111 111" fill="none" xmlns="http://www.w3.org/2000/svg">
<g clip-path="url(#clip0_134_521)">
<path d="M55.5 111C86.1518 111 111 86.1518 111 55.5C111 24.8482 86.1518 0 55.5 0C24.8482 0 0 24.8482 0 55.5C0 86.1518 24.8482 111 55.5 111Z" fill="#FF0000"/>
<path d="M55.5 29.011C70.0688 29.011 81.9887 40.8678 81.9887 55.4996C81.9887 70.1315 70.1318 81.9883 55.5 81.9883C40.8682 81.9883 29.0114 70.1315 29.0114 55.4996C29.0114 40.8678 40.9313 29.011 55.5 29.011ZM55.5 26.4883C39.4807 26.4883 26.4886 39.4803 26.4886 55.4996C26.4886 71.519 39.4807 84.511 55.5 84.511C71.5193 84.511 84.5114 71.519 84.5114 55.4996C84.5114 39.4803 71.5193 26.4883 55.5 26.4883Z" fill="white"/>
<path d="M45.4091 70.006L70.0056 54.8696L45.4091 40.9946V70.006Z" fill="white"/>
</g>
<defs>
<clipPath id="clip0_134_521">
<rect width="111" height="111" fill="white"/>
</clipPath>
</defs>
</svg>
