<svg width="170" height="45" viewBox="0 0 170 45" fill="none" xmlns="http://www.w3.org/2000/svg">
<rect x="1" y="1" width="168" height="43" rx="4" fill="black" stroke="white" stroke-width="2"/>
<g clip-path="url(#clip0_134_503)">
<path d="M56.424 30.5001H52.5865L47.1264 15.5005H49.9549L54.319 27.8618H54.7574L59.2745 15.5005H62.0594L56.424 30.5001Z" fill="white"/>
<path d="M69.3654 22.7343L76.4702 30.5001H73.0056L67.2165 24.0747H66.5585V30.5001H63.9272V15.5005H66.5585V21.6067H67.1945L72.6766 15.5005H75.922L69.3654 22.7343Z" fill="white"/>
<path d="M85.2947 30.5001H82.7289V15.5005H86.8515L91.0618 26.8406H91.4125L95.7106 15.5005H99.7453V30.5001H97.1796V18.9046H96.829L92.4214 30.5001H89.9654L85.6453 18.9046H85.2947V30.5001Z" fill="white"/>
<path d="M110.924 19.4365H113.489L108.819 31.883C108.424 32.9326 107.912 33.6914 107.284 34.1595C106.67 34.6276 105.844 34.8616 104.806 34.8616H103.074L102.854 32.6276H104.981C105.405 32.6276 105.727 32.5355 105.946 32.351C106.18 32.1809 106.378 31.8759 106.538 31.4362L106.67 31.0958L101.605 19.4365H104.302L107.657 27.415H108.007L110.924 19.4365Z" fill="white"/>
<path d="M121.422 24.8623C122.051 25.0466 122.569 25.3658 122.979 25.8197C123.403 26.2594 123.614 26.8055 123.614 27.4579C123.614 28.0679 123.417 28.621 123.023 29.1175C122.642 29.5997 122.087 29.9898 121.356 30.2876C120.64 30.5713 119.814 30.7132 118.878 30.7132C117.635 30.7132 116.568 30.4295 115.676 29.8621C114.8 29.2948 114.222 28.543 113.944 27.6069L116.269 27.2239C116.517 27.7203 116.846 28.082 117.255 28.309C117.665 28.5217 118.198 28.6281 118.856 28.6281C119.573 28.6281 120.121 28.5076 120.501 28.2664C120.895 28.0253 121.093 27.692 121.093 27.2665C121.093 26.4296 120.347 26.0112 118.856 26.0112H117.431V23.8836H118.856C119.529 23.8836 120.04 23.7772 120.391 23.5644C120.742 23.3375 120.917 23.0325 120.917 22.6496C120.917 22.2382 120.735 21.912 120.369 21.6709C120.004 21.4297 119.551 21.3092 119.01 21.3092C118.469 21.3092 117.979 21.4368 117.541 21.6921C117.117 21.9475 116.788 22.295 116.554 22.7347L114.229 22.3517C114.565 21.3305 115.165 20.5574 116.027 20.0326C116.905 19.4936 117.928 19.2241 119.097 19.2241C119.931 19.2241 120.676 19.3589 121.334 19.6284C121.992 19.8979 122.503 20.2737 122.869 20.756C123.249 21.2383 123.439 21.7843 123.439 22.3943C123.439 23.0042 123.249 23.529 122.869 23.9687C122.503 24.4084 122.021 24.7062 121.422 24.8623Z" fill="white"/>
<path d="M126.024 30.5V19.4365H128.545V22.5854H130.322C131.228 22.5854 132.032 22.7556 132.734 23.096C133.436 23.4222 133.984 23.8903 134.378 24.5002C134.773 25.0959 134.97 25.7768 134.97 26.5427C134.97 27.3086 134.773 27.9966 134.378 28.6065C133.984 29.2022 133.428 29.6703 132.712 30.0107C132.01 30.3369 131.213 30.5 130.322 30.5H126.024ZM138.852 30.5H136.33V19.4365H138.852V30.5ZM130.322 28.3724C130.95 28.3724 131.462 28.2022 131.856 27.8618C132.251 27.5214 132.449 27.0817 132.449 26.5427C132.449 26.0037 132.251 25.564 131.856 25.2236C131.462 24.8832 130.95 24.713 130.322 24.713H128.545V28.3724H130.322Z" fill="white"/>
<path d="M152.093 30.5H148.782L144.835 26.0959H144.221V30.5H141.699V19.4365H144.221V23.7343H144.835L148.65 19.4365H151.654L146.852 24.7555L152.093 30.5Z" fill="white"/>
<path d="M157.74 19.2241C159.202 19.2241 160.35 19.6709 161.183 20.5645C162.031 21.4439 162.455 22.685 162.455 24.2878V30.5004H160.591L160.065 28.7558C159.743 29.2806 159.268 29.7415 158.639 30.1387C158.011 30.5217 157.265 30.7132 156.402 30.7132C155.642 30.7132 154.955 30.5642 154.341 30.2664C153.742 29.9685 153.274 29.5501 152.938 29.0111C152.602 28.4721 152.434 27.8622 152.434 27.1814C152.434 26.1317 152.857 25.2949 153.705 24.6708C154.568 24.0325 155.818 23.7134 157.455 23.7134H159.911C159.853 22.9758 159.619 22.3943 159.209 21.9687C158.815 21.529 158.281 21.3092 157.609 21.3092C157.068 21.3092 156.6 21.4368 156.205 21.6921C155.811 21.9475 155.518 22.2595 155.328 22.6283L153.004 22.2453C153.281 21.3092 153.852 20.5716 154.714 20.0326C155.591 19.4936 156.6 19.2241 157.74 19.2241ZM156.994 28.6494C157.872 28.6494 158.581 28.3728 159.122 27.8196C159.663 27.2665 159.933 26.536 159.933 25.6282H157.543C155.833 25.6282 154.977 26.1104 154.977 27.075C154.977 27.5572 155.16 27.9402 155.526 28.2239C155.891 28.5076 156.381 28.6494 156.994 28.6494Z" fill="white"/>
<path d="M6 22.4005C6 15.6115 6 12.2185 8.17366 10.1095C10.3473 8.00049 13.8443 8.00049 20.8415 8.00049H22.0783C29.0754 8.00049 32.5724 8.00049 34.7461 10.1095C36.9198 12.2185 36.9198 15.6115 36.9198 22.4005V23.6005C36.9198 30.3895 36.9198 33.7825 34.7461 35.8915C32.5724 38.0005 29.0754 38.0005 22.0783 38.0005H20.8415C13.8443 38.0005 10.3473 38.0005 8.17366 35.8915C6 33.7825 6 30.3895 6 23.6005V22.4005Z" fill="#0077FF"/>
<path d="M6 23.6005C6 30.3895 6 33.7825 8.17366 35.8915C10.3473 38.0005 13.8443 38.0005 20.8415 38.0005H22.0783C29.0754 38.0005 32.5724 38.0005 34.7461 35.8915C36.9198 33.7825 36.9198 30.3895 36.9198 23.6005V22.4005C36.9198 21.1375 36.9198 19.9915 36.9043 18.9505C36.7033 18.8005 36.4622 18.6145 36.1901 18.3985C34.2514 16.8745 30.5936 14.0005 26.407 14.0005C23.5933 14.0005 21.3455 15.5005 18.8193 17.1865C15.5882 19.3405 11.9026 21.8005 6 21.8005C6 21.9985 6 22.1965 6 22.4005V23.6005Z" fill="#F45FFF"/>
<path d="M29.9628 23.2942C29.9628 22.5532 30.5905 21.9502 31.3542 21.9502C32.1179 21.9502 32.7456 22.5502 32.7456 23.2942V28.7092C32.7456 29.4502 32.1179 30.0502 31.3542 30.0502C30.5905 30.0502 29.9628 29.4502 29.9628 28.7092V23.2942Z" fill="white"/>
<path d="M25.0156 19.8445C25.0156 19.1035 25.6433 18.5005 26.407 18.5005C27.1707 18.5005 27.7984 19.1005 27.7984 19.8445V32.1595C27.7984 32.9005 27.1707 33.5005 26.407 33.5005C25.6433 33.5005 25.0156 32.9005 25.0156 32.1595V19.8445Z" fill="white"/>
<path d="M20.0685 23.2912C20.0685 22.5502 20.6962 21.9502 21.4599 21.9502C22.2236 21.9502 22.8513 22.5502 22.8513 23.2912V28.7062C22.8513 29.4472 22.2236 30.0472 21.4599 30.0472C20.6962 30.0472 20.0685 29.4472 20.0685 28.7062V23.2912Z" fill="white"/>
<path d="M15.1213 25.2414C15.1213 24.5004 15.749 23.9004 16.5127 23.9004C17.2764 23.9004 17.9041 24.5004 17.9041 25.2414V26.7564C17.9041 27.4974 17.2764 28.1004 16.5127 28.1004C15.749 28.1004 15.1213 27.5004 15.1213 26.7564V25.2414Z" fill="white"/>
<path d="M10.1742 25.2414C10.1742 24.5004 10.8019 23.9004 11.5656 23.9004C12.3293 23.9004 12.957 24.5004 12.957 25.2414V26.7564C12.957 27.4974 12.3293 28.1004 11.5656 28.1004C10.8019 28.1004 10.1742 27.5004 10.1742 26.7564V25.2414Z" fill="white"/>
</g>
<defs>
<clipPath id="clip0_134_503">
<rect width="158" height="30" fill="white" transform="translate(6 8)"/>
</clipPath>
</defs>
</svg>
