<svg width="134" height="134" viewBox="0 0 134 134" fill="none" xmlns="http://www.w3.org/2000/svg">
<circle cx="67" cy="67" r="66" fill="black" stroke="#FED42B" stroke-width="2"/>
<mask id="mask0_134_483" style="mask-type:luminance" maskUnits="userSpaceOnUse" x="10" y="60" width="114" height="14">
<path d="M123.332 60.1528H10.6493V73.6445H123.332V60.1528Z" fill="white"/>
</mask>
<g mask="url(#mask0_134_483)">
<path d="M10.8473 65.3887C10.8473 66.6757 11.466 67.4494 12.5667 68.2401L10.6493 71.0953H12.232L14.3713 67.902L13.629 67.3949C12.7264 66.7887 12.2934 66.3053 12.2934 65.3034C12.2934 64.3998 12.9244 63.7813 14.1356 63.7813H14.7789V71.0969H16.2503V62.6533H14.1233C11.9718 62.6533 10.8466 63.7552 10.8466 65.3887H10.8473Z" fill="#FED42B"/>
<path d="M20.8383 67.3939H18.9094V64.9805H17.4625V71.0951H18.9094V68.5326H20.8383V71.0951H22.2975V64.9805H20.8383V67.3939Z" fill="#FED42B"/>
<path d="M40.016 64.9805H38.5576L36.5296 67.8027V64.9805H35.0828V71.0951H36.5296V68.087L38.6559 71.0951H40.3008L37.9888 67.8027L40.016 64.9805Z" fill="#FED42B"/>
<path d="M43.1694 66.0199C43.7259 66.0199 44.2701 66.2181 44.5663 66.391V65.1777C44.257 65.0041 43.7259 64.8804 43.0205 64.8804C41.166 64.8804 40.2134 66.1927 40.2134 68.0368C40.2134 70.0422 41.1406 71.1564 43.0819 71.1564C43.7374 71.1564 44.2071 71.0449 44.5655 70.7852V69.5974C44.1948 69.8571 43.7619 70.0184 43.1563 70.0184C42.1301 70.0184 41.6971 69.2385 41.6971 68.0007C41.6971 66.6883 42.229 66.0206 43.1686 66.0206L43.1694 66.0199Z" fill="#FED42B"/>
<path d="M28.1463 64.9805H23.9423V65.5007C23.9423 66.9982 23.8433 68.9168 23.3366 69.9441H22.8792V72.432H24.227V71.0951H27.4669V72.432H28.7902V69.9441H28.1471V64.9805H28.1463ZM26.6994 69.9441H24.6714C25.0668 69.0159 25.178 67.357 25.178 66.2928V66.1192H26.6986V69.9441H26.6994Z" fill="#FED42B"/>
<path d="M31.7314 64.8813C29.9882 64.8813 29.147 66.2183 29.147 68.0501C29.147 70.1416 30.1855 71.1566 32.0277 71.1566C32.9549 71.1566 33.6349 70.9583 34.0556 70.674V69.4984C33.6105 69.7835 32.8559 70.0186 32.1513 70.0186C31.0905 70.0186 30.686 69.5345 30.6361 68.5457H34.1048V67.7904C34.1048 65.6735 33.1775 64.8813 31.7307 64.8813H31.7314ZM31.7069 66.0201C32.436 66.0201 32.6464 66.6017 32.6464 67.357V67.4807H30.6345C30.669 66.5218 31.0153 66.0201 31.7069 66.0201Z" fill="#FED42B"/>
<path d="M60.4559 65.413L60.4191 65.141L58.1931 64.6209L59.343 62.9128L59.2071 62.7276L57.414 63.6058L57.6121 61.217L57.414 61.1187L56.301 63.0365L54.9907 60.1528H54.7437L55.0645 62.975L51.7877 60.3634L51.5037 60.4379L54.026 63.6058L49.0182 61.9354L48.7833 62.1951L53.2591 64.7323L47.1017 65.2524L47.0394 65.6236L53.4449 66.3166L48.091 70.6986L48.3382 71.0328L54.6814 67.5668L53.4326 73.6445H53.8156L56.2641 67.9263L57.7479 72.3944L58.0074 72.1961L57.4509 67.7158L59.7137 70.2775L59.8504 70.0178L58.1686 66.8491L60.555 67.6912L60.5796 67.4308L58.5892 65.8341L60.4559 65.413Z" fill="#FED42B"/>
<path d="M90.2487 67.9465C91.381 67.7183 91.9252 67.1612 91.9252 66.5773C91.9252 65.3517 90.2188 64.7578 87.9683 64.7578C86.4224 64.7578 85.2602 65.0552 84.4566 65.4632V66.7878C85.1613 66.4167 86.3234 66.0579 87.5354 66.0579C88.4012 66.0579 88.9077 66.2438 88.9077 66.7141C88.9077 67.1843 88.4749 67.3702 87.4486 67.3702H86.0393V68.6826H87.4363C88.7596 68.6826 89.0935 68.8685 89.0935 69.3388C89.0935 69.7353 88.5869 70.0319 87.3995 70.0319C85.78 70.0319 84.8397 69.537 84.2709 69.2643V70.6258C84.7652 70.9232 85.9158 71.282 87.7334 71.282C90.5772 71.282 92.1478 70.539 92.1478 69.3265C92.1478 68.5504 91.4646 68.1209 90.2487 67.948V67.9465Z" fill="#FED42B"/>
<path d="M82.5519 64.9805L80.4704 68.8423L78.2121 64.9805H74.8486L78.8523 71.6237L77.6433 73.5454H79.362L81.056 70.7486L84.2706 64.9805H82.5519Z" fill="#FED42B"/>
<path d="M68.5843 67.4502L66.4774 62.6533H62.9288V71.0953H64.2768V64.8862L67.0461 71.0953H68.5797L71.3123 64.8847V71.0953H74.3296V62.6533H70.6323L68.5843 67.4502Z" fill="#FED42B"/>
<path d="M113.972 64.9805H111.709L108.445 67.4062V64.9805H105.44V71.0951H108.445V68.5449L110.584 71.0951H114.454L110.957 67.178L113.972 64.9805Z" fill="#FED42B"/>
<path d="M97.2419 66.6512H96.0053V64.98H92.9879V71.0946H97.2288C99.4917 71.0946 100.889 70.3024 100.889 68.8295C100.889 67.5048 99.6521 66.6512 97.2411 66.6512H97.2419ZM96.8212 69.8199H96.0053V67.9259H96.8212C97.4768 67.9259 97.8598 68.2355 97.8598 68.8664C97.8598 69.5963 97.526 69.8191 96.8212 69.8191V69.8199Z" fill="#FED42B"/>
<path d="M120.439 64.9927L120.372 65.761C119.76 65.1932 118.848 64.8936 117.682 64.8936C115.629 64.8936 113.948 66.0077 113.948 68.0746C113.948 70.1415 115.543 71.2679 117.669 71.2679C118.813 71.2679 119.748 70.9628 120.378 70.372L120.439 71.0942H123.333V64.9927H120.439ZM118.683 69.9064C117.656 69.9064 117.026 69.3892 117.026 68.0623C117.026 66.6539 117.681 66.2551 118.683 66.2551C119.598 66.2551 120.328 66.6408 120.328 68.0623C120.328 69.4838 119.71 69.9064 118.683 69.9064Z" fill="#FED42B"/>
<path d="M104.241 64.9805H101.235V71.0951H104.241V64.9805Z" fill="#FED42B"/>
</g>
</svg>
